<svg width="43" height="49" viewBox="0 0 53 59" fill="none" xmlns="http://www.w3.org/2000/svg">
    <path d="M25.9295 53.7246C36.0279 53.4373 38.0982 42.6998 38.0982 42.6998C38.8595 38.3844 28.3738 43.2482 26.1565 46.6783C26.2633 42.8231 28.2802 38.5981 30.5109 35.8322C31.4994 39.1421 35.6938 40.4976 37.7775 37.7602C39.4607 42.6029 46.3666 41.2662 45.565 36.253C49.8529 38.5908 53.5262 32.378 49.6257 29.1316C54.0204 27.6141 52.1769 20.3017 47.4616 20.5474C49.4385 16.1635 43.1202 11.8845 40.3552 15.5874C38.6721 10.7447 31.7661 12.0814 32.5677 17.0946C28.1329 14.7852 24.6066 20.9696 28.5071 24.216C24.3662 25.5176 25.7154 32.0921 29.7495 32.8118C28.1599 34.4533 25.573 37.8106 24.3442 40.8827C19.6036 35.1932 12.5736 33.9165 12.5736 33.9165C6.05573 32.0057 11.7569 43.9635 23.3114 51.8972C23.5251 53.3564 23.405 58.3813 25.3552 58.1706C27.0116 58.0167 26.1032 55.0248 25.9295 53.7246ZM34.6917 23.6859C36.9758 19.9094 42.6795 21.1395 43.8417 25.7495C44.9638 30.2006 40.4624 33.7394 36.5352 30.9983C34.251 29.273 33.4494 26.0937 34.6917 23.6859Z" fill="#5100ff"></path>
    <path d="M21.6334 42.9558C21.8562 42.2323 22.253 40.5886 22.253 40.5886C22.3373 39.8698 22.5059 38.4323 22.5944 35.9372C23.1372 32.0999 21.8785 27.5748 20.1663 24.4591C18.6465 27.5715 14.327 28.2081 12.7534 25.1453C10.2987 29.6592 3.78555 27.1721 5.40884 22.3407C0.833262 23.9345 -1.7078 17.1612 2.64235 14.602C-1.39045 12.3586 1.63519 5.42504 6.19419 6.46258C5.00124 1.78669 11.8834 -1.38819 13.9596 2.74572C16.4143 -1.76816 22.9275 0.718992 21.3042 5.55039C26.0183 4.00946 28.4208 10.7299 24.0707 13.289C27.8921 15.2758 25.4725 21.5616 21.4161 21.5952C22.6914 23.489 23.9807 26.0916 24.6641 29.3419L25.2382 32.6386C25.4207 33.6822 25.2934 36.7211 24.4943 41.5864C24.0409 42.9959 23.3149 47.9941 21.4476 47.4569C19.8574 47.0255 21.2458 44.2145 21.6334 42.9558ZM18.1259 11.7223C16.5313 7.59642 10.7602 7.8545 8.85274 12.2257C7.01105 16.4461 10.8089 20.7099 15.1003 18.6559C17.6183 17.3314 18.9338 14.3168 18.1259 11.7223Z" fill="#5100ff"></path>
</svg>