<svg width="54" height="46" viewBox="0 0 64 56" fill="none" xmlns="http://www.w3.org/2000/svg"><path d="M41.2419 2.19119C41.5962 2.51396 41.9974 2.78515 42.4251 2.97294C42.8493 3.16002 43.3156 3.25601 43.7322 3.15216C44.1501 3.05494 44.4861 2.76312 44.7436 2.4115C45.0044 2.05796 45.1868 1.63623 45.3355 1.2047L45.751 0L45.9766 1.29772C46.1207 2.12702 46.3968 2.9899 46.847 3.66656C47.2936 4.35791 47.9453 4.78453 48.6787 4.78821C49.4179 4.80342 50.2039 4.47086 50.9225 4.03444C51.651 3.60169 52.3368 3.05774 52.9936 2.47724L53.8394 1.73012L54.0686 2.8731C54.1877 3.46653 54.4429 4.12606 54.7735 4.61178C55.1099 5.115 55.539 5.4271 56.0366 5.47483C56.5383 5.53341 57.1393 5.34003 57.7033 5.03072C58.2699 4.71564 58.8256 4.31384 59.3516 3.86501L61.53 2.00585L60.4669 4.67316C60.2005 5.34107 60.0089 6.15044 59.933 6.91033C59.8612 7.68089 59.8674 8.45704 60.0409 9.19227C60.3575 10.6745 61.3497 11.9267 62.6992 12.7473L63.5126 13.2419L62.6745 13.6602C62.0473 13.973 61.3954 14.4216 60.8638 14.933C60.3265 15.4506 59.8823 16.0619 59.6079 16.7509C59.3349 17.4405 59.2621 18.2085 59.3718 18.9705C59.4908 19.7309 59.763 20.4836 60.137 21.1879C59.6559 20.5528 59.2527 19.8388 59.0268 19.0441C58.7943 18.2534 58.7847 17.3783 59.0091 16.5551C59.2288 15.727 59.6908 14.9827 60.2447 14.3477C60.6204 13.9249 61.0265 13.5519 61.48 13.2174C60.9577 12.8688 60.4675 12.4577 60.0483 11.9683C59.4493 11.2584 59.0137 10.4027 58.7783 9.50647C58.5369 8.61038 58.4739 7.68176 58.5575 6.7813C58.5782 6.56309 58.605 6.34907 58.637 6.13681C58.5506 6.18734 58.4669 6.24084 58.3772 6.28857C57.6705 6.6554 56.8273 6.9759 55.868 6.86522C55.3961 6.80875 54.9246 6.62428 54.5431 6.34925C54.1602 6.07456 53.8624 5.73081 53.6272 5.37342C53.3607 4.95676 53.1738 4.53485 53.0307 4.09686C52.5519 4.45407 52.0582 4.79642 51.5209 5.09157C50.677 5.54128 49.7052 5.92612 48.6164 5.85215C48.0789 5.81299 47.5328 5.62031 47.0948 5.30138C46.6517 4.98491 46.3292 4.56125 46.0871 4.12658C45.7763 3.55063 45.5806 2.95703 45.4567 2.34786C45.3634 2.48406 45.2649 2.61765 45.1524 2.74301C44.8144 3.12995 44.3388 3.46478 43.7964 3.52038C43.2589 3.58403 42.7501 3.40621 42.3313 3.15216C41.9109 2.89163 41.5485 2.56082 41.2419 2.19119ZM47.6872 20.2211L47.5492 20.1596L47.4005 20.1865C46.6488 20.3229 45.8973 20.4603 45.1501 20.6224C44.4624 20.0949 43.7644 19.5845 43.0544 19.0935C43.3391 18.7295 43.6019 18.3545 43.8445 17.9689C44.1154 17.8387 44.3822 17.7014 44.6454 17.558C45.0597 17.4977 45.4709 17.4271 45.8786 17.3438C46.6311 17.6619 47.3976 17.9385 48.1694 18.1989L48.3427 18.2574L48.4902 18.1515C49.2658 17.5935 50.0205 17.0059 50.7462 16.378C51.2082 16.4446 51.6738 16.4974 52.1464 16.5214C51.6818 16.3039 51.2095 16.1178 50.7329 15.9493L50.66 15.9236L50.5573 15.9823C49.7548 16.442 48.9823 16.9436 48.2272 17.4696C47.4904 17.2258 46.7491 16.9952 45.9938 16.8064L45.8917 16.7807L45.8323 16.8027C45.7708 16.8252 45.7103 16.8513 45.6488 16.8744L45.655 16.8413C45.8076 16.021 45.9265 15.1944 45.9851 14.356C46.2479 14.1123 46.5064 13.8621 46.7458 13.5855C46.3714 13.7353 46.0165 13.9126 45.6693 14.1006L45.6201 14.127L45.5868 14.2286C45.3375 14.9927 45.1483 15.7685 44.9872 16.5493C44.4861 16.8557 43.9895 17.1697 43.5129 17.5169L43.4282 17.5785L43.4076 17.6292C43.2377 18.0478 43.0892 18.4767 42.9584 18.9149C42.4434 17.4995 41.8786 16.1052 41.2882 14.7218L41.1876 14.4861L40.939 14.447C40.0936 14.3132 39.2486 14.177 38.3989 14.0691C37.5911 13.9555 36.779 13.867 35.9656 13.7859C35.4981 13.0202 35.0099 12.2649 34.487 11.5277C34.8068 12.4299 35.1635 13.3129 35.545 14.1833L35.5942 14.2956L35.7507 14.3326C36.5852 14.5316 37.4211 14.7217 38.2614 14.8857C39.0175 15.0439 39.7774 15.1785 40.5373 15.3135C41.1273 16.6976 41.7386 18.073 42.4077 19.4235L42.4659 19.541L42.5468 19.5843C43.274 19.9746 44.0121 20.3472 44.7583 20.7065C43.9797 20.8742 43.2058 21.0686 42.4351 21.2814C41.8281 21.1366 41.2187 20.9985 40.5944 20.9027C41.1684 21.2377 41.7589 21.5266 42.3514 21.8095L42.3907 21.828L42.4875 21.8208C43.3427 21.7568 44.1946 21.674 45.0407 21.5577C45.84 21.4601 46.6329 21.3262 47.4261 21.1936C48.3212 21.5766 49.2224 21.9455 50.1386 22.2803L50.2421 22.3183L50.3026 22.3144C51.5081 22.2375 52.7136 22.1196 53.9186 21.8971C52.7494 21.6906 51.5806 21.5846 50.4119 21.5171C49.516 21.0571 48.6052 20.6312 47.6872 20.2211ZM64 53.2223V55.3708H0V53.2223H46.5187C45.6604 52.7407 45.1488 51.7659 45.3214 50.7408L46.1027 46.0988L12.191 40.4063L11.4096 45.0481C11.1897 46.3544 9.95114 47.2355 8.64323 47.0159L5.53541 46.4941C4.22742 46.2745 3.34541 45.0376 3.56523 43.7315L4.35015 39.0683C2.50971 38.6457 1.289 36.8719 1.60617 34.9877L3.38288 24.4327C3.59605 23.1659 4.15125 22.045 4.9304 21.1349L1.4802 18.9895C1.03573 18.7668 0.889974 18.1592 1.15453 17.6322L1.80463 16.3374C2.69242 14.5699 4.62067 13.7418 6.11145 14.4884L9.35917 16.1148L11.9226 8.45494C12.0696 8.01397 12.3106 7.58017 12.6582 7.13047C12.662 7.1233 12.6955 7.08151 12.729 7.03937L12.8256 6.92152C12.9028 6.82885 12.981 6.73706 13.0679 6.64911C16.4501 2.82729 25.616 1.41871 35.8979 3.14481C46.1811 4.87091 54.3828 9.19542 56.3275 13.9123C56.3788 14.0205 56.4218 14.1307 56.4639 14.2415L56.5194 14.3921C56.5367 14.4421 56.5542 14.4919 56.5681 14.5417C56.7366 15.0376 56.8224 15.5263 56.8168 15.9916L56.732 24.0669L60.3336 23.5903C61.987 23.3714 63.5381 24.7836 63.7983 26.7438L63.9888 28.1797C64.0664 28.7642 63.7297 29.2908 63.2367 29.3561L59.2737 30.2571C59.7121 31.3717 59.8698 32.6123 59.6566 33.8788L57.8798 44.4341C57.5627 46.3182 55.8282 47.5958 53.9506 47.3944L53.1657 52.0574C53.0901 52.5071 52.8874 52.9009 52.6089 53.2223H64ZM55.0013 33.5786C54.6984 33.4293 54.3731 33.3045 54.0307 33.2043C53.7943 33.135 53.5519 33.0751 53.2999 33.0328C51.4393 32.7205 49.7013 33.2644 48.7571 34.3112C48.5098 34.5856 48.3181 34.8938 48.1925 35.2311C48.1344 35.3873 48.0854 35.5472 48.0572 35.7151C48.0288 35.8833 48.0228 36.0508 48.0267 36.2178C48.0425 36.8885 48.3053 37.5416 48.7639 38.1133C49.4903 39.0188 50.6945 39.7205 52.1336 39.962C53.0628 40.1179 53.9608 40.0583 54.7463 39.8317C56.1363 39.4311 57.1707 38.502 57.3765 37.2795C57.5746 36.1027 56.9585 34.932 55.8577 34.1034C55.5979 33.9077 55.3112 33.7316 55.0013 33.5786ZM13.7742 29.4535C13.7658 29.0938 13.6856 28.7399 13.5417 28.4C12.9921 27.1025 11.5278 26.0208 9.66715 25.7086C9.41528 25.6663 9.16674 25.6439 8.92092 25.632C8.56435 25.6148 8.21575 25.6266 7.88055 25.6689C7.53772 25.7122 7.20926 25.7848 6.8997 25.885C5.58803 26.3086 4.62233 27.214 4.4243 28.3907C4.21849 29.6133 4.8917 30.829 6.07416 31.6616C6.74247 32.1323 7.57152 32.4816 8.50071 32.6378C9.93985 32.8792 11.3075 32.6095 12.2905 31.9907C12.911 31.6002 13.3734 31.0687 13.6079 30.4401C13.6662 30.2836 13.7154 30.1235 13.7437 29.9551C13.7719 29.7874 13.7779 29.6201 13.7742 29.4535ZM40.3816 36.0361L20.892 32.7645L20.7812 33.4223L40.2709 36.6939L40.3816 36.0361ZM41.0081 32.3145L21.5184 29.0429L21.4077 29.7005L40.8974 32.9721L41.0081 32.3145ZM54.0436 26.0086C54.2693 26.0464 54.4903 26.0959 54.7067 26.1544L54.8137 15.9704C54.8161 15.7286 54.7662 15.4637 54.6558 15.1367L54.6339 15.0705L54.5895 14.9493C54.5656 14.8865 54.5437 14.8241 54.5135 14.7636L54.4833 14.6958C52.8656 10.7148 44.9098 6.68653 35.5658 5.11797C26.2216 3.54941 17.3842 4.75883 14.5527 7.99282L14.4989 8.04982C14.4498 8.09772 14.4086 8.14965 14.3663 8.20053L14.2661 8.3245C14.0334 8.62629 13.8996 8.86006 13.8227 9.08894L10.5899 18.7487C10.8134 18.7641 11.0383 18.7895 11.2641 18.8274L54.0436 26.0086Z" fill="#5100FF"></path></svg>